HIERARCHY
ROOT Hips
{
	OFFSET 0.00000 0.00000 0.00000
	CHANNELS 6 Xposition Yposition Zposition Yrotation Zrotation Xrotation 
	JOINT Lumbar
	{
		OFFSET 0 0 0
		CHANNELS 3 Zrotation Xrotation Yrotation
		JOINT Neck
		{
			OFFSET 0.00 0.2701 0.00
			CHANNELS 3 Zrotation Xrotation Yrotation
			End Site
			{
				OFFSET 0.00 0.1379 0.00
			}
		}
		JOINT RightShoulder
		{
			OFFSET 0.0119 0.2289 0.1181
			CHANNELS 3 Zrotation Xrotation Yrotation
			JOINT RightElbow
			{
				OFFSET 0.00 -0.1475 0.00
				CHANNELS 2 Zrotation Yrotation
				JOINT RightWrist
				{
					OFFSET 0.00 -0.1605 0.00
					CHANNELS 2 Zrotation Xrotation
					End Site
					{
						OFFSET 0.0040 -0.1068 0.0006
					}
				}
			}
		}
		JOINT LeftShoulder
		{
			OFFSET 0.0119 0.2289 -0.1181
			CHANNELS 3 Zrotation Xrotation Yrotation
			JOINT LeftElbow
			{
				OFFSET 0.00 -0.1475 0.00
				CHANNELS 2 Zrotation Yrotation
				JOINT LeftWrist
				{
					OFFSET 0.00 -0.1605 0.00
					CHANNELS 2 Zrotation Xrotation
					End Site
					{
						OFFSET 0.0040 -0.1068 -0.0006
					}
				}
			}
		}
	}
	JOINT RightHip
	{
		OFFSET 0.0316 -0.0424 0.0458
		CHANNELS 3 Zrotation Xrotation Yrotation
		JOINT RightKnee
		{
			OFFSET 0.00 -0.2438 0.00
			CHANNELS 1 Zrotation
			JOINT RightAnkle
			{
				OFFSET 0.00 -0.2449 0.00
				CHANNELS 3 Zrotation Xrotation Yrotation
				End Site
				{
					OFFSET 0.1237 -0.0542 0.0051
				}
			}
		}
	}
	JOINT LeftHip
	{
		OFFSET 0.0316 -0.0424 -0.0458
		CHANNELS 3 Zrotation Xrotation Yrotation
		JOINT LeftKnee
		{
			OFFSET 0.00 -0.2438 0.00
			CHANNELS 1 Zrotation
			JOINT LeftAnkle
			{
				OFFSET 0.00 -0.2449 0.00
				CHANNELS 3 Zrotation Xrotation Yrotation
				End Site
				{
					OFFSET 0.1237 -0.0542 -0.0051
				}
			}
		}
	}
}
MOTION
Frames: 26
Frame Time: 0.02
0.10583 -0.40044 -0.07998 -135.15831 -27.91279 -9.4192 26.32441 11.58145 -24.76707 15.34875 -11.52919 -0.82013 139.53909 -3.67397 64.16949 20.2509 45.92792 40.98833 -7.29101 78.88708 -11.30185 -26.58165 58.89967 -114.31645 -43.60958 7.17664 129.75266 13.03838 37.87791 -139.5038 -5.81884 -3.86961 -2.58037 108.14738 2.62962 -4.69632 -148.91173 23.89211 -35.80934 -17.18822
0.10589 -0.40015 -0.08146 -134.86614 -28.08317 -9.4602 26.32888 11.67153 -25.11734 15.31337 -11.44896 -0.82015 140.01566 -3.91785 64.1704 20.90568 46.0352 41.12403 -7.27053 78.33481 -11.05255 -26.75614 60.52031 -113.38594 -42.80224 7.10677 129.84904 13.15702 37.82968 -139.52867 -2.65768 -6.08634 -3.26756 108.96179 2.61895 -3.29359 -148.91173 23.89216 -35.80945 -17.18827
0.10587 -0.39982 -0.08308 -134.60618 -28.21031 -9.57036 26.25988 11.75716 -25.57418 15.30159 -11.42641 -0.82017 140.48615 -4.14138 64.1705 21.49509 46.22962 41.18732 -7.24282 78.05915 -10.73977 -27.09673 61.66342 -112.12434 -42.02153 6.99291 129.97507 13.30507 37.6744 -139.58882 2.10069 -9.01935 -4.14458 109.7828 2.68753 -2.38467 -148.91173 23.89218 -35.8095 -17.1883
0.10586 -0.39953 -0.08462 -134.33826 -28.35252 -9.64271 26.22947 11.83336 -25.97124 15.26589 -11.38302 -0.82019 140.94581 -4.36357 64.1703 22.09254 46.40172 41.29146 -7.21594 77.65329 -10.46481 -27.34438 63.0035 -111.05867 -41.23642 6.90431 130.08459 13.43704 37.56661 -139.63387 6.00016 -11.56007 -4.90981 110.58133 2.7259 -1.37784 -148.91173 23.89222 -35.80958 -17.18834
0.10596 -0.39916 -0.08628 -134.04458 -28.51879 -9.74192 26.17731 11.95569 -26.41816 15.29064 -11.31536 -0.82021 141.46482 -4.63212 64.17055 22.78275 46.50516 41.35967 -7.19914 77.26238 -10.15195 -27.66256 64.43505 -109.80196 -40.40918 6.79418 130.208 13.58253 37.44807 -139.67067 10.46895 -14.42896 -5.79831 111.47332 2.73933 0.16635 -148.91173 23.89227 -35.80967 -17.18839
0.10582 -0.39894 -0.08769 -133.81202 -28.62286 -9.80157 26.15314 11.98257 -26.78484 15.1939 -11.31266 -0.82023 141.85823 -4.79767 64.17053 23.26436 46.76789 41.4866 -7.16006 76.90711 -9.90273 -27.87418 65.56175 -108.86318 -39.68007 6.71806 130.30907 13.70591 37.33223 -139.73454 14.1268 -16.76664 -6.47136 112.16589 2.82322 0.48973 -148.91173 23.89228 -35.80972 -17.18841
0.10501 -0.39915 -0.0884 -133.7312 -28.56578 -9.73627 26.22152 11.7365 -26.91574 14.74846 -11.47379 -0.82026 141.90336 -4.69625 64.17054 23.17822 47.48316 41.79168 -7.05734 76.58926 -9.84774 -27.75565 65.94011 -108.89579 -39.21162 6.74797 130.34148 13.76258 37.25353 -139.86622 15.17223 -17.46012 -6.47451 112.33104 3.08836 -2.65125 -148.91173 23.89227 -35.8097 -17.18844
0.10397 -0.39952 -0.08883 -133.71193 -28.44704 -9.62878 26.32101 11.39665 -26.96009 14.18085 -11.69854 -0.82029 141.82236 -4.48993 64.17055 22.88568 48.3491 42.15897 -6.93319 76.29784 -9.85851 -27.52432 66.02998 -109.25744 -38.84348 6.81325 130.35007 13.7953 37.18295 -140.02413 15.34208 -17.58699 -6.25616 112.28965 3.42083 -6.96924 -148.91173 23.89222 -35.80963 -17.18845
0.10305 -0.39981 -0.08935 -133.67015 -28.35565 -9.5396 26.40805 11.10679 -27.03581 13.67289 -11.89565 -0.82031 141.80099 -4.32281 64.17054 22.69228 49.12374 42.49926 -6.82136 75.98972 -9.8372 -27.34129 66.2676 -109.46037 -38.43263 6.86142 130.36932 13.83784 37.10854 -140.16972 15.90061 -17.96933 -6.15641 112.32482 3.71841 -10.60846 -148.91173 23.89215 -35.80952 -17.18844
0.10206 -0.40013 -0.09001 -133.60691 -28.26512 -9.45564 26.4856 10.78565 -27.14785 13.14721 -12.09041 -0.82034 141.77051 -4.18886 64.17055 22.47366 49.99829 42.83172 -6.69827 75.70809 -9.82275 -27.17417 66.42366 -109.69075 -38.0085 6.91263 130.3907 13.88643 37.03039 -140.31868 16.55477 -18.3904 -5.99143 112.43216 4.03621 -14.86295 -148.91173 23.89221 -35.80964 -17.18856
0.10117 -0.40041 -0.09033 -133.60203 -28.15941 -9.35091 26.59103 10.50742 -27.16358 12.63061 -12.3031 -0.82037 141.72812 -3.96354 64.17054 22.25997 50.69881 43.1961 -6.59378 75.37757 -9.81068 -26.94789 66.68074 -109.94611 -37.63791 6.96625 130.40114 13.91573 36.96381 -140.46577 16.77998 -18.58132 -5.90271 112.34163 4.32765 -18.12031 -148.91173 23.89201 -35.8093 -17.1884
0.10062 -0.4005 -0.08977 -133.74738 -28.0207 -9.18983 26.76813 10.37088 -26.92291 12.15594 -12.56136 -0.82041 141.69189 -3.49117 64.17051 22.10524 50.88705 43.63437 -6.54472 74.87335 -9.78745 -26.56004 67.34486 -110.19405 -37.37041 7.01993 130.3909 13.90243 36.92504 -140.60687 16.03637 -18.31801 -6.11618 111.74072 4.52264 -18.23757 -148.91173 23.89104 -35.80757 -17.18732
0.10017 -0.40054 -0.08888 -133.9483 -27.87011 -9.01051 26.97213 10.28072 -26.58992 11.69712 -12.83328 -0.82045 141.64646 -2.9343 64.17047 21.96358 50.89406 44.10247 -6.51533 74.32346 -9.765 -26.12046 68.11193 -110.45646 -37.1568 7.07463 130.36962 13.86944 36.89876 -140.74409 14.88396 -17.83225 -6.40659 110.95045 4.68965 -17.32631 -148.91173 23.88984 -35.80542 -17.18597
0.09968 -0.4006 -0.08815 -134.12101 -27.72929 -8.8455 27.16273 10.16924 -26.30627 11.23918 -13.0907 -0.82049 141.59996 -2.42973 64.17043 21.82009 50.97963 44.55708 -6.4778 73.81446 -9.7436 -25.72075 68.7969 -110.71147 -36.93191 7.12776 130.35084 13.84225 36.86858 -140.87912 13.9084 -17.41497 -6.63554 110.25639 4.87386 -16.94876 -148.91173 23.88881 -35.80358 -17.18482
0.09917 -0.40066 -0.08738 -134.30876 -27.56817 -8.65433 27.35948 10.05562 -25.98854 10.74201 -13.38427 -0.82053 141.57146 -1.86316 64.17039 21.65335 51.08454 45.01491 -6.43632 73.22232 -9.71848 -25.24844 69.62183 -110.98207 -36.65557 7.18686 130.34195 13.82776 36.83053 -141.03135 12.93692 -17.11074 -6.96651 109.51236 5.04178 -16.33444 -148.91173 23.8875 -35.80124 -17.18335
0.09873 -0.40072 -0.08663 -134.47708 -27.44689 -8.51302 27.54923 9.95853 -25.72094 10.33298 -13.60633 -0.82057 141.50465 -1.4066 64.17036 21.53915 51.10667 45.47059 -6.4078 72.79114 -9.70048 -24.91612 70.18194 -111.21831 -36.49686 7.23321 130.31004 13.78217 36.81247 -141.14703 11.87623 -16.5322 -7.1089 108.82997 5.23576 -15.95146 -148.91173 23.88672 -35.79984 -17.18248
0.09846 -0.40081 -0.08604 -134.58205 -27.44254 -8.52122 27.71458 9.89767 -25.61501 10.15499 -13.61514 -0.82058 141.33728 -1.27878 64.17039 21.58231 50.92208 45.92748 -6.41243 72.82402 -9.7015 -24.98717 70.00097 -111.36446 -36.65866 7.24499 130.2183 13.65792 36.84046 -141.15774 10.62285 -15.19295 -6.68804 108.36649 5.51098 -16.47019 -148.91173 23.88754 -35.8013 -17.18339
0.09827 -0.40091 -0.08548 -134.66457 -27.47827 -8.57917 27.87146 9.85204 -25.56302 10.06751 -13.55342 -0.8206 141.13177 -1.26432 64.17044 21.67601 50.66394 46.37806 -6.42916 73.01891 -9.70943 -25.20087 69.54863 -111.47238 -36.9351 7.24358 130.10374 13.50276 36.88917 -141.13252 9.30411 -13.59784 -6.07993 107.97214 5.81252 -17.24848 -148.91173 23.88889 -35.80371 -17.1849
0.09804 -0.401 -0.0849 -134.75445 -27.49328 -8.60961 28.03116 9.79853 -25.48635 9.94458 -13.53191 -0.82062 140.94237 -1.19569 64.17048 21.73752 50.45336 46.82188 -6.43901 73.13369 -9.71417 -25.34683 69.21191 -111.5907 -37.15238 7.24748 129.99901 13.36022 36.93247 -141.12699 8.05322 -12.16179 -5.57457 107.54569 6.10011 -17.89545 -148.91173 23.88995 -35.8056 -17.18608
0.09782 -0.40108 -0.08435 -134.85807 -27.51829 -8.65967 28.19644 9.75026 -25.40715 9.79749 -13.47682 -0.82063 140.75767 -1.13528 64.17053 21.83846 50.17658 47.30787 -6.45528 73.2735 -9.71916 -25.50236 68.91094 -111.7391 -37.40027 7.25435 129.89602 13.22277 36.95963 -141.10747 6.63706 -10.54123 -4.99852 107.11556 6.39539 -18.56651 -148.91173 23.89121 -35.80785 -17.18748
0.09761 -0.4012 -0.08376 -134.9273 -27.53233 -8.68145 28.3474 9.69453 -25.34719 9.72281 -13.47429 -0.82065 140.55434 -1.08575 64.17056 21.86891 50.0229 47.70357 -6.46092 73.40122 -9.72529 -25.67359 68.47 -111.81562 -37.61236 7.25186 129.78433 13.06793 37.02476 -141.10821 5.54179 -9.24186 -4.52266 106.71178 6.681 -19.25876 -148.91173 23.89218 -35.80958 -17.18856
0.09739 -0.40144 -0.08302 -134.90426 -27.50494 -8.60861 28.46345 9.61068 -25.32817 9.81936 -13.63797 -0.82068 140.30836 -1.03938 64.17057 21.69447 50.22557 47.8559 -6.43379 73.44781 -9.73246 -25.84431 67.70669 -111.70128 -37.68464 7.22671 129.65246 12.87038 37.19305 -141.17689 5.46968 -8.9414 -4.38338 106.36696 6.93539 -19.97916 -148.91173 23.89219 -35.80963 -17.18862
0.09718 -0.40171 -0.08225 -134.84762 -27.46545 -8.50653 28.56471 9.51926 -25.32696 9.9867 -13.85618 -0.82072 140.04514 -1.00035 64.17056 21.44699 50.55628 47.91656 -6.39593 73.47838 -9.74059 -26.02773 66.81201 -111.51594 -37.71894 7.19255 129.51305 12.65698 37.39818 -141.2666 5.70527 -8.96611 -4.34873 106.04669 7.17879 -20.71058 -148.91173 23.89188 -35.80913 -17.18834
0.09697 -0.40196 -0.0815 -134.80791 -27.43247 -8.42076 28.67099 9.43358 -25.31737 10.12598 -14.04691 -0.82075 139.79021 -0.95782 64.17056 21.23137 50.82976 48.01619 -6.36267 73.52182 -9.74855 -26.2116 65.97826 -111.36437 -37.77898 7.16256 129.37825 12.45233 37.58416 -141.34459 5.71896 -8.80934 -4.25613 105.71409 7.42625 -21.42058 -148.91173 23.89171 -35.80888 -17.18821
0.09673 -0.40222 -0.08074 -134.76046 -27.39666 -8.32385 28.78437 9.33884 -25.31071 10.25148 -14.24671 -0.82079 139.53196 -0.91982 64.17055 21.02275 51.09476 48.12711 -6.32939 73.54727 -9.75563 -26.37457 65.12917 -111.20593 -37.80777 7.13193 129.23747 12.2398 37.78096 -141.4305 6.06435 -8.78115 -4.19957 105.38862 7.67904 -22.20919 -148.91173 23.89158 -35.80867 -17.1881
0.09655 -0.40248 -0.07999 -134.72139 -27.36329 -8.2427 28.87931 9.26087 -25.3016 10.42079 -14.44132 -0.82082 139.27709 -0.87276 64.17056 20.78205 51.41099 48.19266 -6.2955 73.60432 -9.76468 -26.58173 64.28528 -111.04445 -37.89051 7.10049 129.10785 12.04064 37.96379 -141.50531 5.80815 -8.57155 -4.09693 105.05338 7.91718 -22.83227 -148.91173 23.89129 -35.80823 -17.18786
